<svg width="678" height="228" viewBox="0 0 678 228" fill="none" xmlns="http://www.w3.org/2000/svg">
<path d="M143.772 40.7987C146.311 42.2725 147.664 43.9565 148.749 46.6869C149.228 49.7775 149.203 52.8625 149.206 55.984C149.207 57.1675 149.21 58.351 149.214 59.5346C149.213 60.1202 149.213 60.1202 149.212 60.7177C149.231 63.0836 149.477 65.2627 149.967 67.5739C150.615 71.2123 150.868 74.0897 149.31 77.53C144.501 84.3511 137.731 90.1407 131.365 95.4751C131.18 95.4751 130.995 95.4751 130.804 95.4751C130.765 89.1721 130.735 82.869 130.717 76.5659C130.708 73.639 130.696 70.7122 130.677 67.7853C130.659 64.9601 130.649 62.1349 130.644 59.3097C130.641 58.2324 130.635 57.1552 130.626 56.078C130.614 54.5678 130.612 53.0578 130.613 51.5475C130.607 51.1034 130.601 50.6593 130.595 50.2017C130.612 47.1216 131.178 44.7569 133.328 42.4C136.676 39.7924 139.77 39.0813 143.772 40.7987Z" fill="#0F5C47"/>
<path d="M114.156 0.00171138C114.655 0.00114662 115.153 0.00058187 115.667 0C123.255 0.00580859 130.64 0.281219 138.094 1.82426C138.488 1.90233 138.883 1.9804 139.289 2.06084C156.338 5.53749 173.816 13.8906 186.882 25.3772C187.314 25.7473 187.746 26.1174 188.19 26.4988C189.652 27.779 191.074 29.0934 192.49 30.4243C192.818 30.7298 193.145 31.0353 193.483 31.35C201.619 38.9982 208.286 47.6298 213.8 57.3419C214.011 57.696 214.221 58.0501 214.438 58.415C222.801 72.5464 227.844 89.8654 227.934 106.314C227.938 106.798 227.941 107.282 227.946 107.781C227.955 109.334 227.959 110.886 227.96 112.439C227.96 112.969 227.961 113.499 227.961 114.044C227.952 121.619 227.801 128.992 226.137 136.412C226.038 136.872 225.939 137.331 225.837 137.805C223.703 147.495 220.82 156.791 216.102 165.541C215.457 166.742 214.831 167.952 214.205 169.164C209.733 177.667 204.033 185.197 197.342 192.085C196.274 193.199 195.237 194.34 194.195 195.479C175.456 215.53 148.07 226.917 120.791 227.898C118.415 227.963 116.041 227.988 113.665 227.996C113.241 227.997 112.817 227.998 112.38 228C101.19 228.004 89.8825 226.867 79.2119 223.334C78.8267 223.211 78.4415 223.088 78.0446 222.961C63.9502 218.397 50.4899 210.734 39.3962 200.903C39.087 200.63 38.7778 200.358 38.4592 200.077C34.5484 196.611 30.9138 193.103 27.6942 188.968C26.8788 187.929 26.0328 186.913 25.162 185.919C21.3206 181.536 18.3559 176.837 15.4271 171.813C14.8088 170.767 14.1694 169.742 13.5125 168.721C7.38502 158.837 4.46241 147.075 1.8237 135.852C1.71879 135.419 1.61388 134.987 1.50579 134.542C0.412186 129.89 0.0534633 125.297 0.0274334 120.526C0.0215331 119.8 0.0215331 119.8 0.0155136 119.06C0.00575315 117.507 0.002138 115.954 0.00114662 114.402C0.000579042 113.607 0.000579043 113.607 0 112.797C0.00860771 105.229 0.133705 97.8386 1.8237 90.4282C1.92291 89.9809 2.02213 89.5336 2.12435 89.0727C9.00146 58.8919 27.9931 32.6885 54.0638 16.2116C72.7269 4.76164 92.4421 0.0187598 114.156 0.00171138ZM92.6707 13.0399C92.1922 13.1514 91.7136 13.2628 91.2206 13.3776C69.1991 18.5827 48.2274 30.8291 34.3492 48.9301C34.0555 49.2979 33.7617 49.6657 33.4591 50.0446C27.0917 58.0656 22.1655 66.8037 18.6472 76.4086C18.4725 76.8768 18.2977 77.3451 18.1177 77.8275C11.5982 95.5041 9.68374 115.097 13.6002 133.609C13.7026 134.121 13.8051 134.633 13.9107 135.161C17.1934 151.211 24.5063 166.358 34.91 179.032C35.3141 179.525 35.3141 179.525 35.7265 180.028C52.3518 200.144 76.657 213.761 102.774 216.357C130.02 218.564 157.522 211.486 178.666 193.77C181.07 191.702 183.442 189.608 185.761 187.444C186.216 187.019 186.672 186.594 187.141 186.156C192.802 180.691 197.514 174.528 201.437 167.71C201.848 166.998 202.266 166.289 202.687 165.583C209.024 154.963 212.756 144.087 214.922 131.926C215.026 131.365 215.131 130.804 215.239 130.225C216.064 125.454 216.222 120.778 216.183 115.944C216.182 115.552 216.18 115.161 216.178 114.757C216.029 88.8549 208.155 62.8775 189.476 44.1284C188.802 43.4826 188.124 42.8395 187.443 42.2007C184.639 39.3968 184.639 39.3968 183.643 38.3212C168.727 22.6279 143.909 11.83 122.275 11.2672C121.469 11.2563 120.662 11.2486 119.856 11.2437C119.418 11.2397 118.981 11.2358 118.531 11.2317C105.501 11.059 105.501 11.059 92.6707 13.0399Z" fill="#FF0000"/>
<path d="M175.246 108.689C178.075 110.27 179.702 112.629 180.714 115.663C181.249 120.03 180.233 122.951 178.085 126.704C177.809 127.208 177.533 127.712 177.248 128.231C176.359 129.844 175.454 131.446 174.545 133.048C173.952 134.107 173.36 135.166 172.769 136.226C171.251 138.933 169.718 141.63 168.179 144.325C166.673 146.965 165.176 149.61 163.68 152.255C163.384 152.776 163.088 153.298 162.784 153.835C161.102 156.809 159.439 159.791 157.794 162.785C157.422 163.459 157.05 164.134 156.679 164.809C155.972 166.093 155.268 167.379 154.567 168.666C148.799 179.147 142.026 189.358 131.365 195.295C130.563 195.746 130.563 195.746 129.746 196.206C119.119 201.649 106.292 202.458 94.9658 198.883C81.8273 194.406 71.4636 185.775 65.1922 173.424C61.6734 166.083 61.1052 159.507 61.1966 151.483C61.2022 150.617 61.2073 149.751 61.2119 148.885C61.2242 146.784 61.2435 144.682 61.2667 142.581C64.7564 145.421 67.8602 148.602 70.9916 151.823C72.6248 153.5 74.2686 155.166 75.9106 156.834C77.9916 158.949 80.0692 161.066 82.1348 163.196C83.8131 164.926 85.5021 166.645 87.1989 168.356C87.8415 169.009 88.48 169.665 89.1144 170.325C90.0001 171.246 90.8989 172.152 91.802 173.056C92.3095 173.575 92.8169 174.094 93.3398 174.629C94.8859 175.862 94.8859 175.862 96.9716 175.628C99.2674 174.987 100.238 174.07 101.853 172.338C102.332 171.835 102.811 171.333 103.304 170.815C104.454 169.601 104.454 169.601 105.008 168.377C105.378 168.377 105.748 168.377 106.129 168.377C106.407 167.544 106.407 167.544 106.69 166.695C107.528 165.868 107.528 165.868 108.616 164.975C111.499 162.527 114.152 159.876 116.819 157.196C117.301 156.717 117.783 156.237 118.279 155.743C120.718 153.3 123.062 150.82 125.312 148.203C127.297 145.961 129.424 143.857 131.54 141.74C131.994 141.279 132.449 140.817 132.917 140.342C133.568 139.69 133.568 139.69 134.232 139.024C134.624 138.629 135.016 138.235 135.42 137.829C136.412 136.973 136.412 136.973 137.533 136.973C137.533 136.603 137.533 136.233 137.533 135.852C138.331 135.067 138.331 135.067 139.45 134.146C142.201 131.805 144.716 129.27 147.246 126.695C148.238 125.693 149.231 124.691 150.223 123.69C151.771 122.125 153.317 120.559 154.86 118.99C156.361 117.465 157.866 115.946 159.373 114.428C160.062 113.723 160.062 113.723 160.765 113.005C165.052 108.699 169.237 106.058 175.246 108.689Z" fill="#0F5B46"/>
<path d="M6.30997 74.7263C8.9669 75.5357 11.3506 76.6174 13.8105 77.8807C14.3494 78.154 14.3494 78.154 14.8992 78.4328C15.7757 78.8776 16.6508 79.3252 17.5257 79.7734C17.3691 80.3187 17.3691 80.3187 17.2094 80.8751C16.0845 84.8826 15.1792 88.9046 14.3712 92.9869C14.2498 93.5807 14.1284 94.1746 14.0032 94.7864C11.4826 107.413 11.4947 121.007 14.1609 133.609C14.2634 134.121 14.3659 134.633 14.4715 135.161C19.7184 160.814 35.3703 184.422 57.1664 198.939C81.3844 214.677 108.438 219.497 136.765 213.657C155.648 209.488 171.678 200.001 185.761 186.883C186.175 186.499 186.589 186.115 187.016 185.72C191.191 181.709 194.887 177.12 198.098 172.303C200.693 173.084 202.947 174.151 205.318 175.457C205.965 175.811 206.611 176.166 207.277 176.531C207.764 176.801 208.251 177.071 208.753 177.35C206.231 182.89 201.551 187.699 197.378 192.039C196.693 192.761 196.015 193.49 195.344 194.224C176.966 214.31 150.142 226.501 122.953 227.82C119.857 227.932 116.763 227.985 113.665 227.996C113.241 227.997 112.817 227.999 112.38 228C101.19 228.004 89.8825 226.867 79.2119 223.334C78.8267 223.211 78.4415 223.088 78.0446 222.961C63.9502 218.397 50.4899 210.734 39.3962 200.903C38.9324 200.494 38.9324 200.494 38.4592 200.077C34.5484 196.611 30.9138 193.103 27.6942 188.969C26.8788 187.929 26.0328 186.913 25.162 185.919C21.3206 181.536 18.3559 176.837 15.4271 171.813C14.8088 170.768 14.1694 169.743 13.5125 168.721C7.38502 158.837 4.46241 147.075 1.8237 135.852C1.71879 135.42 1.61388 134.987 1.50579 134.542C0.412186 129.89 0.0534633 125.297 0.0274334 120.527C0.0234999 120.043 0.0195663 119.559 0.0155136 119.06C0.00575315 117.507 0.002138 115.955 0.00114662 114.402C0.000579042 113.607 0.000579043 113.607 0 112.797C0.0152053 99.4289 1.98011 87.3811 6.30997 74.7263Z" fill="#105A45"/>
<path d="M173.984 60.1458C177.242 62.848 180.226 65.7606 183.202 68.7678C183.666 69.2341 184.13 69.7003 184.608 70.1807C185.741 71.3207 186.873 72.462 188.004 73.6046C183.833 78.4883 179.577 83.2282 174.979 87.7162C173.853 88.8677 172.816 90.0087 171.778 91.2329C169.251 94.1299 166.529 96.8248 163.803 99.5305C162.853 100.473 161.905 101.417 160.958 102.362C158.606 104.706 156.251 107.048 153.896 109.389C151.9 111.374 149.904 113.361 147.911 115.349C146.984 116.272 146.056 117.193 145.127 118.114C142.465 120.764 139.875 123.438 137.432 126.294C135.43 128.543 133.269 130.643 131.132 132.762C130.257 133.629 129.385 134.498 128.513 135.368C126.348 137.525 124.181 139.679 122.013 141.833C120.175 143.66 118.338 145.488 116.502 147.318C115.65 148.167 114.796 149.014 113.942 149.86C111.028 152.759 108.241 155.721 105.569 158.844C104.161 160.38 102.715 161.875 101.258 163.365C100.711 163.944 100.711 163.944 100.153 164.534C99.798 164.895 99.4434 165.256 99.0781 165.628C98.7624 165.955 98.4467 166.282 98.1215 166.618C97.157 167.256 97.157 167.256 95.9741 167.134C94.5852 166.559 93.991 165.798 93.0562 164.627C91.4452 162.685 89.7641 161.09 87.7835 159.532C87.5457 159.305 87.3079 159.078 87.0628 158.844C87.0628 158.474 87.0628 158.104 87.0628 157.722C86.6927 157.722 86.3226 157.722 85.9413 157.722C85.1935 156.963 85.1935 156.963 84.3004 155.874C81.6159 152.72 78.6781 149.828 75.7442 146.91C75.1462 146.313 74.5483 145.716 73.9505 145.118C72.391 143.561 70.8298 142.005 69.2682 140.45C67.6694 138.857 66.0722 137.262 64.4749 135.668C61.3509 132.55 58.2251 129.433 55.0981 126.318C56.084 124.206 57.3033 122.863 58.9689 121.216C59.2371 120.95 59.5054 120.683 59.7818 120.408C60.6363 119.56 61.4947 118.716 62.3533 117.871C62.9286 117.302 63.5036 116.732 64.0784 116.162C65.1344 115.115 66.1922 114.07 67.2513 113.026C68.2511 112.04 69.2463 111.049 70.2393 110.056C79.3072 119.123 88.3751 128.191 97.7177 137.534C100.697 135.013 100.697 135.013 103.519 132.366C103.832 132.055 104.145 131.744 104.467 131.424C104.79 131.099 105.113 130.775 105.446 130.441C105.792 130.095 106.138 129.75 106.495 129.394C107.221 128.668 107.947 127.941 108.672 127.214C109.77 126.113 110.871 125.015 111.972 123.917C112.682 123.206 113.393 122.495 114.103 121.784C114.588 121.301 114.588 121.301 115.082 120.808C116.673 119.209 118.198 117.584 119.662 115.868C122.271 112.855 125.116 110.074 127.942 107.267C128.968 106.249 129.991 105.23 131.014 104.209C133.553 101.678 136.095 99.1492 138.637 96.6205C140.791 94.4773 142.945 92.3328 145.096 90.1868C146.097 89.1892 147.1 88.1934 148.103 87.1976C150.941 84.3727 153.729 81.5364 156.329 78.4881C157.651 76.966 159.076 75.5561 160.512 74.1435C160.961 73.6982 160.961 73.6982 161.418 73.2439C162.358 72.3112 163.299 71.3805 164.241 70.4502C165.488 69.2178 166.734 67.9835 167.978 66.7481C168.258 66.4729 168.538 66.1977 168.826 65.9141C170.674 64.0785 172.345 62.1651 173.984 60.1458Z" fill="#FF0000"/>
<path d="M120.885 26.6039C123.215 28.1751 124.649 30.1073 125.757 32.6674C125.972 33.9438 125.972 33.9438 126.077 35.3708C126.118 35.9145 126.159 36.4582 126.202 37.0184C126.261 37.9091 126.261 37.9091 126.32 38.8178C126.364 39.4472 126.408 40.0765 126.453 40.725C126.999 49.0028 127.324 57.2864 127.544 65.5784C127.556 65.9751 127.567 66.3717 127.578 66.7805C128.559 102.51 128.559 102.51 117.811 114.41C115.99 116.308 114.05 118.027 112.018 119.694C111.689 119.964 111.361 120.233 111.022 120.511C106.999 123.761 102.806 126.609 98.2785 129.122C97.9336 128.757 97.5888 128.392 97.2335 128.017C95.8412 126.611 94.3382 125.405 92.7879 124.177C87.6978 119.932 83.7662 116.183 83.0455 109.356C82.9084 106.09 82.9389 102.846 83.0663 99.5817C83.1313 97.6108 83.1319 95.6397 83.1405 93.668C83.1635 90.3684 83.2269 87.0718 83.3204 83.7735C83.452 79.1278 83.5087 74.4833 83.5511 69.8361C83.5868 66.21 83.6414 62.5842 83.7003 58.9585C83.7065 58.5724 83.7126 58.1864 83.719 57.7886C83.7614 55.2304 83.8215 52.6731 83.8899 50.1155C83.9015 49.474 83.9131 48.8325 83.925 48.1716C84.0367 44.5988 84.2658 41.7944 86.7824 39.0353C89.6331 36.8156 91.8865 36.2245 95.4746 36.5928C98.6571 37.7161 100.694 39.7408 102.204 42.7615C102.26 43.6115 102.281 44.4639 102.285 45.3158C102.289 45.8536 102.293 46.3915 102.297 46.9456C102.298 47.5376 102.3 48.1296 102.301 48.7395C102.305 49.3614 102.309 49.9833 102.313 50.6241C102.321 51.9778 102.327 53.3315 102.333 54.6852C102.342 56.8246 102.355 58.9639 102.369 61.1032C102.409 67.1869 102.443 73.2705 102.471 79.3543C102.489 83.0717 102.512 86.789 102.539 90.5063C102.548 91.9265 102.555 93.3468 102.559 94.7671C102.566 96.7491 102.58 98.7309 102.595 100.713C102.595 101.305 102.596 101.897 102.596 102.507C102.604 103.313 102.604 103.313 102.612 104.137C102.615 104.605 102.617 105.074 102.62 105.558C102.664 106.818 102.664 106.818 103.886 107.812C105.741 107.65 105.741 107.65 107.251 106.691C107.3 105.75 107.309 104.807 107.303 103.865C107.301 103.252 107.298 102.64 107.296 102.009C107.29 101.331 107.285 100.653 107.279 99.9547C107.274 98.8657 107.268 97.7767 107.263 96.6877C107.257 95.513 107.249 94.3384 107.242 93.1637C107.226 90.7149 107.217 88.2662 107.208 85.8173C107.206 84.9792 107.203 84.141 107.2 83.3029C107.198 82.883 107.197 82.4632 107.195 82.0306C107.175 76.3278 107.15 70.6251 107.113 64.9224C107.088 61.0787 107.071 57.2351 107.063 53.3913C107.058 51.3576 107.05 49.324 107.031 47.2903C107.01 45.0176 107.007 42.7451 107.005 40.4722C106.992 39.4673 106.992 39.4673 106.978 38.4421C106.992 34.5628 107.395 32.0349 109.494 28.7419C112.807 25.5902 116.628 25.0777 120.885 26.6039Z" fill="#105A45"/>
<path d="M74.235 66.0341C76.7792 67.5172 78.1575 69.1603 79.2119 71.9223C79.5894 74.8123 79.5395 77.6733 79.4857 80.5794C79.4805 81.4154 79.4765 82.2513 79.4737 83.0873C79.4631 85.2743 79.4356 87.4608 79.4044 89.6475C79.3756 91.8843 79.3629 94.1211 79.3488 96.358C79.3189 100.737 79.2711 105.116 79.2119 109.495C78.5848 108.962 77.9585 108.429 77.3324 107.896C76.9835 107.599 76.6346 107.302 76.2752 106.996C75.4737 106.294 74.7079 105.552 73.9546 104.798C71.7808 103.453 69.9201 103.325 67.4354 103.887C65.769 104.834 64.3884 105.995 62.9492 107.252C62.1164 107.807 62.1164 107.807 61.2668 108.373C61.2148 103.606 61.1749 98.8382 61.1506 94.0704C61.1389 91.8563 61.1231 89.6424 61.0976 87.4285C61.0732 85.2904 61.0598 83.1526 61.054 81.0144C61.0499 80.2002 61.0418 79.3859 61.0297 78.5717C61.0133 77.4279 61.0111 76.2849 61.0122 75.1411C61.0072 74.491 61.0022 73.841 60.9971 73.1712C61.4218 70.3217 62.8463 68.5957 64.947 66.7C67.8893 64.663 70.9935 64.6431 74.235 66.0341Z" fill="#105C47"/>
<path d="M11.357 103.326C11.5421 103.326 11.7272 103.326 11.9178 103.326C11.9178 110.729 11.9178 118.131 11.9178 125.758C11.7328 125.758 11.5477 125.758 11.357 125.758C11.343 125.444 11.3289 125.13 11.3145 124.806C11.2494 123.382 11.1806 121.959 11.1117 120.535C11.0897 120.041 11.0676 119.547 11.0449 119.038C11.0214 118.563 10.9979 118.087 10.9737 117.598C10.9531 117.16 10.9326 116.723 10.9114 116.272C10.8292 114.994 10.8292 114.994 10.2355 113.42C9.49524 113.42 8.755 113.42 7.99234 113.42C7.99234 112.865 7.99234 112.31 7.99234 111.738C7.62222 111.738 7.2521 111.738 6.87077 111.738C6.73197 112.27 6.59318 112.802 6.45018 113.35C5.7492 115.103 5.7492 115.103 4.55753 115.874C4.03706 116.047 4.03706 116.047 3.50606 116.224C3.50606 115.669 3.50606 115.114 3.50606 114.542C3.13595 114.542 2.76583 114.542 2.38449 114.542C2.19944 115.097 2.01438 115.652 1.82371 116.224C1.26293 115.663 1.26293 115.663 1.22788 113.701C1.23944 113.053 1.25101 112.405 1.26293 111.738C1.26293 111.553 1.26293 111.368 1.26293 111.177C1.07787 114.693 0.892808 118.209 0.702142 121.832C0.517083 121.832 0.332024 121.832 0.141357 121.832C0.141357 116.465 0.141357 111.099 0.141357 105.569C0.326416 105.939 0.511475 106.31 0.702142 106.691C1.13009 106.332 1.55804 105.974 1.99896 105.604C3.50606 104.448 3.50606 104.448 5.18842 103.887C5.55853 104.072 5.92865 104.257 6.30998 104.448C6.30998 105.003 6.30998 105.558 6.30998 106.13C7.05022 106.315 7.79045 106.5 8.55312 106.691C8.55312 106.321 8.55312 105.951 8.55312 105.569C8.92324 105.754 9.29336 105.939 9.67469 106.13C9.11951 106.87 8.56434 107.611 7.99234 108.373C9.38028 108.928 9.38028 108.928 10.7963 109.495C10.9813 107.459 11.1664 105.424 11.357 103.326Z" fill="#0C513A"/>
<path d="M10.7961 101.644C11.3513 101.644 11.9065 101.644 12.4785 101.644C12.6872 105.33 12.6872 105.33 11.6307 106.54C11.3553 106.775 11.0799 107.01 10.7961 107.252C10.6873 106.423 10.583 105.593 10.4807 104.763C10.4221 104.301 10.3636 103.839 10.3033 103.363C10.2808 102.981 10.2584 102.599 10.2354 102.205C10.4204 102.02 10.6055 101.834 10.7961 101.644Z" fill="#20644F"/>
<path d="M354.168 155H336.248V102.648C336.248 96.248 335.011 91.4267 332.536 88.184C330.147 84.856 326.179 83.192 320.632 83.192C312.355 83.192 307.533 86.8187 306.168 94.072C312.995 94.4133 318.499 96.4187 322.68 100.088C326.947 103.672 329.123 108.877 329.208 115.704C329.123 123.469 326.349 129.357 320.888 133.368C315.512 137.293 308.259 139.256 299.128 139.256C295.544 139.256 291.875 138.872 288.12 138.104V123.384C291.192 123.725 294.861 123.896 299.128 123.896C307.235 123.896 311.288 121.208 311.288 115.832C311.288 110.456 307.235 107.768 299.128 107.768H288.504V99.064C288.504 90.1893 291.107 82.7653 296.312 76.792C301.603 70.8187 308.728 67.832 317.688 67.832C326.392 67.832 332.579 70.6053 336.248 76.152V58.872H354.168V69.112H365.048V83.448H354.168V155ZM442.884 83.448H432.004V155H414.084V102.648C414.084 96.8453 412.633 92.152 409.732 88.568C406.916 84.984 402.777 83.192 397.316 83.192C393.647 83.192 390.745 84.216 388.612 86.264C386.564 88.312 385.54 91 385.54 94.328C385.54 97.7413 386.521 100.301 388.484 102.008C390.532 103.629 393.177 104.44 396.42 104.44C398.553 104.44 400.644 104.269 402.692 103.928V119.544C399.705 120.141 396.889 120.44 394.244 120.44C386.052 120.44 379.567 118.179 374.788 113.656C370.009 109.133 367.62 102.691 367.62 94.328C367.62 86.4773 370.009 80.12 374.788 75.256C379.652 70.3067 385.839 67.832 393.348 67.832C402.82 67.832 409.732 71.2027 414.084 77.944V58.872H432.004V69.112H442.884V83.448ZM478.007 155.896C476.642 156.152 475.02 156.28 473.143 156.28C468.45 156.28 464.354 155.299 460.855 153.336C457.356 151.288 454.54 148.515 452.407 145.016C450.359 141.517 448.823 137.635 447.799 133.368C446.775 129.101 446.22 124.493 446.135 119.544C446.135 101.709 448.695 89.6773 453.815 83.448H437.815V69.112H482.487V83.448H478.263C475.106 83.448 472.46 84.3867 470.327 86.264C468.279 88.1413 466.786 90.9147 465.847 94.584C464.908 98.2533 464.268 101.965 463.927 105.72C463.586 109.475 463.415 114.083 463.415 119.544C463.415 133.539 467.298 140.536 475.063 140.536C476.428 140.536 477.41 140.493 478.007 140.408V155.896ZM562.563 124.408C562.563 133.965 559.32 141.688 552.835 147.576C546.435 153.379 537.902 156.28 527.235 156.28C514.947 156.28 504.878 152.227 497.027 144.12C489.176 135.928 485.251 125.219 485.251 111.992C485.251 108.835 485.336 106.275 485.507 104.312H502.659C502.488 106.189 502.403 108.621 502.403 111.608C502.403 120.995 504.579 128.291 508.931 133.496C513.368 138.701 519.47 141.304 527.235 141.304C538.243 141.304 544.6 137.037 546.307 128.504C542.723 129.613 538.84 130.168 534.659 130.168C528.088 130.168 522.627 128.333 518.275 124.664C514.008 120.909 511.875 115.832 511.875 109.432C511.875 103.032 514.008 97.9547 518.275 94.2C522.542 90.36 528.302 88.44 535.555 88.44C538.968 88.44 542.894 88.8667 547.331 89.72V103.928C544.6 103.587 541.955 103.416 539.395 103.416C532.995 103.416 529.795 105.421 529.795 109.432C529.795 113.699 532.91 115.832 539.139 115.832C542.126 115.832 545.624 115.235 549.635 114.04C553.731 112.76 557.315 111.181 560.387 109.304C561.838 113.997 562.563 119.032 562.563 124.408ZM570.499 83.448H477.315V69.112H570.499V83.448ZM605.12 83.448H594.24V155H576.32V91.384C576.32 88.056 575.851 85.9227 574.912 84.984C574.059 83.96 572.267 83.448 569.536 83.448H565.44V69.112H571.84C574.656 69.112 576.789 70.5627 578.24 73.464C577.387 68.856 576.96 64.76 576.96 61.176V58.872H594.24V69.112H605.12V83.448ZM670.596 121.464C670.596 130.509 667.396 138.573 660.996 145.656C654.681 152.739 646.361 156.28 636.036 156.28C629.124 156.28 623.193 154.275 618.244 150.264C613.295 146.253 610.82 140.877 610.82 134.136V83.448H599.94V69.112H651.012C651.012 68.6853 651.012 68.0453 651.012 67.192C651.097 66.3387 651.14 65.8267 651.14 65.656C651.14 63.0107 650.671 61.048 649.732 59.768C648.879 58.488 647.129 57.848 644.484 57.848C642.607 57.848 638.895 58.2747 633.348 59.128C627.801 59.896 623.663 60.28 620.932 60.28C615.215 60.28 610.777 59.3413 607.62 57.464V43.768C610.265 45.2187 614.148 45.944 619.268 45.944C621.913 45.944 626.223 45.432 632.196 44.408C638.255 43.384 643.033 42.872 646.532 42.872C653.273 42.872 658.436 44.664 662.02 48.248C665.604 51.7467 667.396 56.696 667.396 63.096C667.396 65.144 667.225 67.1493 666.884 69.112H677.38V83.448H628.74V134.136C628.74 136.269 629.423 137.933 630.788 139.128C632.153 140.323 633.903 140.92 636.036 140.92C641.071 140.92 645.081 138.915 648.068 134.904C651.14 130.808 652.676 126.328 652.676 121.464C652.676 114.552 649.049 111.096 641.796 111.096C639.919 111.096 638.127 111.267 636.42 111.608V95.992C639.065 95.3947 641.753 95.096 644.484 95.096C652.761 95.096 659.161 97.4853 663.684 102.264C668.292 107.043 670.596 113.443 670.596 121.464Z" fill="#0F5B46"/>
</svg>
